<svg width="200" height="200" viewBox="0 0 200 200" xmlns="http://www.w3.org/2000/svg">
  <defs>
    <filter id="glow-soft">
        <feGaussianBlur stdDeviation="1" result="blur" />
        <feComposite in="SourceGraphic" in2="blur" operator="over" />
    </filter>
  </defs>
  
  <style>
    @keyframes rotate-gear {
      0% { transform: rotate(0deg); }
      100% { transform: rotate(360deg); }
    }
    @keyframes arm-piston {
      0%, 100% { transform: translate(0, 0); }
      50% { transform: translate(5px, 5px); }
    }
    .gear-spin {
      transform-origin: 100px 100px;
      animation: rotate-gear 12s infinite linear;
    }
    .arm-move {
        animation: arm-piston 3s infinite ease-in-out;
    }
  </style>
  
  <!-- Outer Gear Outline - Bronze/Gold -->
  <circle cx="100" cy="100" r="80" fill="none" stroke="#CD7F32" stroke-width="0.5" stroke-opacity="0.2" stroke-dasharray="5,5"/>
  
  <g transform="translate(100, 100) scale(1.4) translate(-100, -100)">
  <g filter="url(#glow-soft)">
      <!-- Main Gear - Bronze/Copper -->
      <g class="gear-spin">
        <path d="M100 60 L105 50 H95 L100 60 Z" fill="#CD7F32" /> 
        <circle cx="100" cy="100" r="35" fill="none" stroke="#CD7F32" stroke-width="2.5" />
        
        <!-- Teeth -->
        <g stroke="#CD7F32" stroke-width="4" stroke-linecap="square">
            <line x1="100" y1="60" x2="100" y2="52" />
            <line x1="100" y1="140" x2="100" y2="148" />
            <line x1="60" y1="100" x2="52" y2="100" />
            <line x1="140" y1="100" x2="148" y2="100" />
            
            <line x1="128" y1="72" x2="134" y2="66" />
            <line x1="72" y1="128" x2="66" y2="134" />
            <line x1="72" y1="72" x2="66" y2="66" />
            <line x1="128" y1="128" x2="134" y2="134" />
        </g>
        
        <!-- Center Hub -->
        <circle cx="100" cy="100" r="12" fill="#CD7F32" fill-opacity="0.2" />
        <circle cx="100" cy="100" r="4" fill="#ffffff" />
      </g>
      
      <!-- Mechanical Arm - Silver/White -->
      <g class="arm-move">
        <path d="M100 100 L130 130" stroke="#ffffff" stroke-width="3" stroke-linecap="round" />
        <circle cx="130" cy="130" r="5" fill="#ffffff" />
        <path d="M130 130 L150 120" stroke="#ffffff" stroke-width="2" stroke-linecap="round" />
        
        <!-- Claw -->
        <path d="M150 120 L155 115" stroke="#ffffff" stroke-width="1.5" />
        <path d="M150 120 L155 125" stroke="#ffffff" stroke-width="1.5" />
      </g>
  </g>
  </g>
</svg>